<svg viewBox="0 0 220 26" fill="none" xmlns="http://www.w3.org/2000/svg">
<path d="M9.35608 15.956H3.92008V26H0.320078V0.799998H13.2441L17.4201 3.212V13.544L13.2441 15.956L19.0401 26H15.0441L9.35608 15.956ZM3.92008 4.04V12.716H13.8201V4.04H3.92008ZM34.8539 0.799998L43.8539 26H40.3259L38.2019 20.024H27.0419L24.9179 26H21.3899L30.3899 0.799998H34.8539ZM32.5859 4.364L28.1939 16.784H37.0499L32.6579 4.364H32.5859ZM47.8162 26V0.799998H60.3802L64.5562 3.212V13.904L60.3802 16.316H51.4162V26H47.8162ZM51.4162 4.04V13.076H60.9562V4.04H51.4162ZM70.3162 26V0.799998H73.9162V26H70.3162ZM99.306 23.588L95.13 26H80.406V0.799998H95.13L99.306 3.212V23.588ZM84.006 4.04V22.76H95.706V4.04H84.006ZM124.644 5.12V26H119.604V5.12H112.8V0.799998H131.448V5.12H124.644ZM141.001 26V15.236L132.901 0.799998H138.373L143.485 10.232H143.557L148.705 0.799998H154.177L146.041 15.272V26H141.001ZM157.781 26V0.799998H171.065L175.241 3.212V14.444L171.065 16.856H162.821V26H157.781ZM162.821 5.12V12.536H170.201V5.12H162.821ZM185.321 15.2V21.68H195.365V26H180.281V0.799998H195.365V5.12H185.321V10.88H193.205V15.2H185.321ZM219.155 26H213.611L208.211 16.496H205.079V26H200.039V0.799998H213.683L217.859 3.212V14.084L213.683 16.496L219.155 26ZM205.079 5.12V12.176H212.819V5.12H205.079Z" fill="black"/>
</svg>
